<svg width="96" height="48" viewBox="0 0 96 48" fill="none" xmlns="http://www.w3.org/2000/svg">
<path fill-rule="evenodd" clip-rule="evenodd" d="M48 36C54.6274 36 60 30.6274 60 24C60 17.3726 54.6274 12 48 12C41.3726 12 36 17.3726 36 24C36 30.6274 41.3726 36 48 36ZM48 33C52.9706 33 57 28.9706 57 24C57 19.0294 52.9706 15 48 15C43.0294 15 39 19.0294 39 24C39 28.9706 43.0294 33 48 33Z" fill="#DCC28F"/>
<path fill-rule="evenodd" clip-rule="evenodd" d="M78.8785 33V35H81.681V30.4032H80.4464L78.7413 15H74.3415L72.2445 30.4032H71V35H73.8417V33H78.8785ZM77.7614 30.5H74.8216L76.5 18.5L77.7614 30.5Z" fill="#DCC28F"/>
<path d="M21.1985 24.1535L25 33H22.1774L18.642 24.8827L18.699 33H16V15H18.699L18.642 23.549L22.1774 15H25L21.1985 24.1535Z" fill="#DCC28F"/>
<path fill-rule="evenodd" clip-rule="evenodd" d="M0 0H96V48H0V0ZM4 4V44H92V4H4Z" fill="#423E38"/>
</svg>
