<svg xmlns="http://www.w3.org/2000/svg" viewBox="0 0 24 24" fill="none">
  <path fill="currentColor" d="M12 .7a12 12 0 0 0-3.8 23.4c.6.1.8-.3.8-.6v-2.2c-3.3.7-4-1.4-4-1.4-.6-1.4-1.4-1.8-1.4-1.8-1.1-.8.1-.8.1-.8 1.2.1 1.9 1.3 1.9 1.3 1.1 1.9 3 1.4 3.7 1.1.1-.8.4-1.4.8-1.7-2.6-.3-5.2-1.3-5.2-5.8 0-1.3.5-2.4 1.3-3.3-.1-.3-.6-1.5.1-3.2 0 0 1-.3 3.4 1.3a11.7 11.7 0 0 1 6.2 0C17.4 3.7 18.4 4 18.4 4c.7 1.7.2 2.9.1 3.2.8.9 1.3 2 1.3 3.3 0 4.5-2.7 5.5-5.2 5.8.4.4.8 1.1.8 2.2v3.2c0 .3.2.7.8.6A12 12 0 0 0 12 .7Z"/>
</svg>

